<?xml version="1.0" encoding="UTF-8"?>
<svg width="56px" height="45px" viewBox="0 0 56 45" version="1.1" xmlns="http://www.w3.org/2000/svg" xmlns:xlink="http://www.w3.org/1999/xlink">
    <!-- Generator: sketchtool 47.1 (45422) - http://www.bohemiancoding.com/sketch -->
    <title>C1D2AFD6-D99E-42A0-8084-9586F71026AD</title>
    <desc>Created with sketchtool.</desc>
    <defs></defs>
    <g id="Visual-Design---tablet" stroke="none" stroke-width="1" fill="none" fill-rule="evenodd">
        <g id="Set-profile-photo" transform="translate(-655.000000, -176.000000)" fill-rule="nonzero" fill="#41E17F">
            <g id="Group-3" transform="translate(655.000000, 176.000000)">
                <g id="E114-Copy">
                    <path d="M55.3846154,41.5384615 L55.3846154,0 L0,0 L0,41.5384615 L14.8467548,41.5384615 L18.3082933,45 L37.0763221,45 L40.5378606,41.5384615 L55.3846154,41.5384615 L55.3846154,41.5384615 Z M51.9230769,38.0769231 L39.077524,38.0769231 L35.6159856,41.5384615 L19.7686298,41.5384615 L16.3070913,38.0769231 L3.46153846,38.0769231 L3.46153846,3.46153846 L51.9230769,3.46153846 L51.9230769,38.0769231 L51.9230769,38.0769231 Z M27.6923077,34.6153846 C29.6033654,34.6153846 31.4017428,34.2548077 33.0874399,33.5336538 C34.773137,32.8125 36.242488,31.8254207 37.4954928,30.5724159 C38.7484976,29.3194111 39.7355769,27.8500601 40.4567308,26.164363 C41.1778846,24.4786659 41.5384615,22.6802885 41.5384615,20.7692308 C41.5384615,18.8581731 41.1778846,17.0597957 40.4567308,15.3740986 C39.7355769,13.6884014 38.7484976,12.2190505 37.4954928,10.9660457 C36.242488,9.71304087 34.773137,8.72596154 33.0874399,8.00480769 C31.4017428,7.28365385 29.6033654,6.92307692 27.6923077,6.92307692 C25.78125,6.92307692 23.9828726,7.28365385 22.2971755,8.00480769 C20.6114784,8.72596154 19.1421274,9.71304087 17.8891226,10.9660457 C16.6361178,12.2190505 15.6490385,13.6884014 14.9278846,15.3740986 C14.2067308,17.0597957 13.8461538,18.8581731 13.8461538,20.7692308 C13.8461538,22.6802885 14.2067308,24.4786659 14.9278846,26.164363 C15.6490385,27.8500601 16.6361178,29.3194111 17.8891226,30.5724159 C19.1421274,31.8254207 20.6114784,32.8125 22.2971755,33.5336538 C23.9828726,34.2548077 25.78125,34.6153846 27.6923077,34.6153846 L27.6923077,34.6153846 Z M27.6923077,10.3846154 C29.1165865,10.3846154 30.4597356,10.6595553 31.7217548,11.2094351 C32.983774,11.7593149 34.0835337,12.5030048 35.0210337,13.4405048 C35.9585337,14.3780048 36.7022236,15.4777644 37.2521034,16.7397837 C37.8019832,18.0018029 38.0769231,19.3449519 38.0769231,20.7692308 C38.0769231,22.1935096 37.8019832,23.5366587 37.2521034,24.7986779 C36.7022236,26.0606971 35.9585337,27.1604567 35.0210337,28.0979567 C34.0835337,29.0354567 32.983774,29.7791466 31.7217548,30.3290264 C30.4597356,30.8789062 29.1165865,31.1538462 27.6923077,31.1538462 C26.2680288,31.1538462 24.9248798,30.8789062 23.6628606,30.3290264 C22.4008413,29.7791466 21.3010817,29.0354567 20.3635817,28.0979567 C19.4260817,27.1604567 18.6823918,26.0606971 18.132512,24.7986779 C17.5826322,23.5366587 17.3076923,22.1935096 17.3076923,20.7692308 C17.3076923,19.3449519 17.5826322,18.0018029 18.132512,16.7397837 C18.6823918,15.4777644 19.4260817,14.3780048 20.3635817,13.4405048 C21.3010817,12.5030048 22.4008413,11.7593149 23.6628606,11.2094351 C24.9248798,10.6595553 26.2680288,10.3846154 27.6923077,10.3846154 L27.6923077,10.3846154 Z M8.65384615,34.6153846 C9.12259615,34.6153846 9.52824519,34.4441106 9.87079327,34.1015625 C10.2133413,33.7590144 10.3846154,33.3533654 10.3846154,32.8846154 C10.3846154,32.4158654 10.2133413,32.0102163 9.87079327,31.6676683 C9.52824519,31.3251202 9.12259615,31.1538462 8.65384615,31.1538462 C8.18509615,31.1538462 7.77944712,31.3251202 7.43689904,31.6676683 C7.09435096,32.0102163 6.92307692,32.4158654 6.92307692,32.8846154 C6.92307692,33.3533654 7.09435096,33.7590144 7.43689904,34.1015625 C7.77944712,34.4441106 8.18509615,34.6153846 8.65384615,34.6153846 Z" id="Shape" transform="translate(27.692308, 22.500000) scale(-1, 1) rotate(-180.000000) translate(-27.692308, -22.500000) "></path>
                </g>
            </g>
        </g>
    </g>
</svg>