<?xml version="1.0" encoding="UTF-8"?>
<svg width="24px" height="20px" viewBox="0 0 24 20" version="1.1" xmlns="http://www.w3.org/2000/svg" xmlns:xlink="http://www.w3.org/1999/xlink">
    <!-- Generator: sketchtool 47.1 (45422) - http://www.bohemiancoding.com/sketch -->
    <title>BB2AAEE5-584D-4743-A443-81304C95C66D</title>
    <desc>Created with sketchtool.</desc>
    <defs></defs>
    <g id="Visual-Design---tablet" stroke="none" stroke-width="1" fill="none" fill-rule="evenodd">
        <g id="Set-profile-photo" transform="translate(-696.000000, -551.000000)" fill-rule="nonzero" fill="#1A1A54">
            <g id="Group" transform="translate(696.000000, 551.000000)">
                <path d="M12.7296,9.7929 L11.7234,8.7984 L13.0455,7.488 L15.0462,7.488 L12.7296,9.7929 L12.7296,9.7929 Z M4.4928,7.488 L10.9161,7.488 L6.7392,11.6766 L4.4928,9.4185 L4.4928,7.488 L4.4928,7.488 Z M14.7537,13.2561 C14.7537,13.2561 14.79075,13.21905 14.86485,13.14495 C14.93895,13.07085 14.976,12.9324 14.976,12.7296 C14.976,12.5268 14.9019,12.3513 14.7537,12.2031 C14.6055,12.0549 14.43,11.9808 14.2272,11.9808 C14.0244,11.9808 13.8489,12.0549 13.7007,12.2031 C13.5525,12.3513 13.4784,12.5268 13.4784,12.7296 C13.4784,12.9324 13.5525,13.1079 13.7007,13.2561 C13.8489,13.4043 14.0244,13.4784 14.2272,13.4784 C14.43,13.4784 14.6055,13.4043 14.7537,13.2561 L14.7537,13.2561 Z M4.4928,1.4976 L22.464,1.4976 L22.464,14.976 L20.9664,14.976 L20.9664,2.9952 L4.4928,2.9952 L4.4928,1.4976 L4.4928,1.4976 Z M16.4736,14.976 L4.4928,14.976 L4.4928,11.5479 L6.7392,13.7826 L10.6704,9.8631 L12.7296,11.9106 L16.4736,8.1783 L16.4736,14.976 L16.4736,14.976 Z M17.9712,5.9904 L2.9952,5.9904 L2.9952,16.4736 L17.9712,16.4736 L17.9712,5.9904 L17.9712,5.9904 Z M19.4688,17.9712 L1.4976,17.9712 L1.4976,4.4928 L19.4688,4.4928 L19.4688,17.9712 L19.4688,17.9712 Z M20.9664,19.4688 L20.9664,16.4736 L23.9616,16.4736 L23.9616,0 L2.9952,0 L2.9952,2.9952 L0,2.9952 L0,19.4688 L20.9664,19.4688 Z" id="Shape" transform="translate(11.980800, 9.734400) scale(-1, 1) rotate(-180.000000) translate(-11.980800, -9.734400) "></path>
            </g>
        </g>
    </g>
</svg>