<?xml version="1.0" encoding="UTF-8"?>
<svg width="25px" height="20px" viewBox="0 0 25 20" version="1.1" xmlns="http://www.w3.org/2000/svg" xmlns:xlink="http://www.w3.org/1999/xlink">
    <!-- Generator: sketchtool 47.1 (45422) - http://www.bohemiancoding.com/sketch -->
    <title>247797E5-87B4-4188-8AF8-875258795694</title>
    <desc>Created with sketchtool.</desc>
    <defs></defs>
    <g id="Visual-Design---tablet" stroke="none" stroke-width="1" fill="none" fill-rule="evenodd">
        <g id="Set-profile-photo" transform="translate(-729.000000, -496.000000)" fill-rule="nonzero" fill="#1A1A54">
            <g id="Group-5" transform="translate(729.000000, 496.000000)">
                <g id="E114">
                    <path d="M24.6153846,18.4615385 L24.6153846,0 L0,0 L0,18.4615385 L6.59855769,18.4615385 L8.13701923,20 L16.4783654,20 L18.0168269,18.4615385 L24.6153846,18.4615385 L24.6153846,18.4615385 Z M23.0769231,16.9230769 L17.3677885,16.9230769 L15.8293269,18.4615385 L8.78605769,18.4615385 L7.24759615,16.9230769 L1.53846154,16.9230769 L1.53846154,1.53846154 L23.0769231,1.53846154 L23.0769231,16.9230769 L23.0769231,16.9230769 Z M12.3076923,15.3846154 C13.1570513,15.3846154 13.9563301,15.224359 14.7055288,14.9038462 C15.4547276,14.5833333 16.1077724,14.1446314 16.6646635,13.5877404 C17.2215545,13.0308494 17.6602564,12.3778045 17.9807692,11.6286058 C18.3012821,10.8794071 18.4615385,10.0801282 18.4615385,9.23076923 C18.4615385,8.38141026 18.3012821,7.58213141 17.9807692,6.83293269 C17.6602564,6.08373397 17.2215545,5.4306891 16.6646635,4.87379808 C16.1077724,4.31690705 15.4547276,3.87820513 14.7055288,3.55769231 C13.9563301,3.23717949 13.1570513,3.07692308 12.3076923,3.07692308 C11.4583333,3.07692308 10.6590545,3.23717949 9.90985577,3.55769231 C9.16065705,3.87820513 8.50761218,4.31690705 7.95072115,4.87379808 C7.39383013,5.4306891 6.95512821,6.08373397 6.63461538,6.83293269 C6.31410256,7.58213141 6.15384615,8.38141026 6.15384615,9.23076923 C6.15384615,10.0801282 6.31410256,10.8794071 6.63461538,11.6286058 C6.95512821,12.3778045 7.39383013,13.0308494 7.95072115,13.5877404 C8.50761218,14.1446314 9.16065705,14.5833333 9.90985577,14.9038462 C10.6590545,15.224359 11.4583333,15.3846154 12.3076923,15.3846154 L12.3076923,15.3846154 Z M12.3076923,4.61538462 C12.9407051,4.61538462 13.5376603,4.73758013 14.0985577,4.98197115 C14.6594551,5.22636218 15.1482372,5.55689103 15.5649038,5.97355769 C15.9815705,6.39022436 16.3120994,6.87900641 16.5564904,7.43990385 C16.8008814,8.00080128 16.9230769,8.59775641 16.9230769,9.23076923 C16.9230769,9.86378205 16.8008814,10.4607372 16.5564904,11.0216346 C16.3120994,11.5825321 15.9815705,12.0713141 15.5649038,12.4879808 C15.1482372,12.9046474 14.6594551,13.2351763 14.0985577,13.4795673 C13.5376603,13.7239583 12.9407051,13.8461538 12.3076923,13.8461538 C11.6746795,13.8461538 11.0777244,13.7239583 10.5168269,13.4795673 C9.95592949,13.2351763 9.46714744,12.9046474 9.05048077,12.4879808 C8.6338141,12.0713141 8.30328526,11.5825321 8.05889423,11.0216346 C7.81450321,10.4607372 7.69230769,9.86378205 7.69230769,9.23076923 C7.69230769,8.59775641 7.81450321,8.00080128 8.05889423,7.43990385 C8.30328526,6.87900641 8.6338141,6.39022436 9.05048077,5.97355769 C9.46714744,5.55689103 9.95592949,5.22636218 10.5168269,4.98197115 C11.0777244,4.73758013 11.6746795,4.61538462 12.3076923,4.61538462 L12.3076923,4.61538462 Z M3.84615385,15.3846154 C4.05448718,15.3846154 4.23477564,15.3084936 4.38701923,15.15625 C4.53926282,15.0040064 4.61538462,14.8237179 4.61538462,14.6153846 C4.61538462,14.4070513 4.53926282,14.2267628 4.38701923,14.0745192 C4.23477564,13.9222756 4.05448718,13.8461538 3.84615385,13.8461538 C3.63782051,13.8461538 3.45753205,13.9222756 3.30528846,14.0745192 C3.15304487,14.2267628 3.07692308,14.4070513 3.07692308,14.6153846 C3.07692308,14.8237179 3.15304487,15.0040064 3.30528846,15.15625 C3.45753205,15.3084936 3.63782051,15.3846154 3.84615385,15.3846154 Z" id="Shape" transform="translate(12.307692, 10.000000) scale(-1, 1) rotate(-180.000000) translate(-12.307692, -10.000000) "></path>
                </g>
            </g>
        </g>
    </g>
</svg>