<svg xmlns="http://www.w3.org/2000/svg" width="24" height="26" viewBox="-1 -1 24 26">
    <path fill="#818181" fill-rule="nonzero" d="M6.769 11.735c1.162 1.178 2.568 1.767 4.218 1.767s3.061-.587 4.235-1.761c1.174-1.174 1.76-2.586 1.76-4.235 0-1.65-.584-3.06-1.754-4.23-1.17-1.17-2.58-1.755-4.23-1.755-1.65 0-3.061.587-4.235 1.76-1.174 1.175-1.76 2.587-1.76 4.236 0 1.65.588 3.056 1.766 4.218zm14.707 12.25h-1.498c0-2.558-.858-4.696-2.574-6.412C15.688 15.857 13.551 15 10.993 15c-1.646 0-3.156.394-4.528 1.182a8.656 8.656 0 0 0-3.253 3.264 8.906 8.906 0 0 0-1.205 4.54H.509c0-2.246.63-4.267 1.89-6.06 1.26-1.795 2.939-3.066 5.037-3.815a7.228 7.228 0 0 1-2.867-2.761c-.702-1.193-1.057-2.387-1.064-3.58 0-1.194.19-2.245.573-3.153.382-.909.92-1.71 1.614-2.405A7.456 7.456 0 0 1 8.097.597c.908-.382 2.137-.574 3.685-.574 1.549 0 3.052.73 4.51 2.188 1.46 1.459 2.189 3.233 2.189 5.324 0 2.09-.504 3.627-1.51 4.61-1.006.982-1.805 1.634-2.398 1.954 2.13.748 3.812 2.022 5.048 3.82 1.237 1.797 1.855 3.82 1.855 6.066z"/>
</svg>
